<?xml version="1.0" encoding="UTF-8"?>
<svg width="307px" height="148px" viewBox="0 0 307 148" version="1.1" xmlns="http://www.w3.org/2000/svg" xmlns:xlink="http://www.w3.org/1999/xlink">
    <title>Group 14</title>
    <g id="Page-1" stroke="none" stroke-width="1" fill="none" fill-rule="evenodd">
        <g id="Group-14" fill="#333333">
            <path d="M15.3625,55.0231 C15.3625,51.9311 16.3435,49.3391 18.3095,47.246 C20.2735,45.153 22.6095,44.106 25.3145,44.106 C29.4365,44.106 32.7695,46.248 35.3145,50.5311 C37.8585,54.8151 39.1325,60.4341 39.1325,67.3911 C39.1325,72.9951 38.0515,77.3431 35.8945,80.4351 C33.7355,83.5271 30.7255,85.0731 26.8605,85.0731 C23.8975,85.0731 21.2405,83.6711 18.8895,80.8701 C16.5375,78.0681 15.3625,74.8961 15.3625,71.3531 L15.3625,55.0231 Z M1.0635,24.008 C1.7705,24.524 2.4645,25.184 3.1405,25.989 C3.8165,26.795 4.1555,27.776 4.1555,28.936 L4.1555,79.6621 C4.1555,81.0791 3.5425,82.3831 2.3195,83.5751 C1.0945,84.7671 0.4835,85.6211 0.4835,86.1351 L0.4835,86.4251 C0.4835,87.3281 1.0635,87.7781 2.2225,87.7781 L12.6575,87.9711 C13.9455,87.9711 14.5905,87.3601 14.5905,86.1351 L14.4935,82.6571 C17.9715,86.7151 22.5445,88.7441 28.2135,88.7441 C34.3975,88.7441 39.6635,86.3931 44.0105,81.6911 C48.3585,76.9901 50.5325,71.0311 50.5325,63.8151 C50.5325,56.7951 48.3255,51.1441 43.9145,46.859 C39.5015,42.576 34.2355,40.434 28.1175,40.434 C22.7065,40.434 18.4545,42.141 15.3625,45.555 L15.3625,17.051 C15.3625,16.022 15.0405,15.361 14.3965,15.071 C13.7525,14.781 12.9145,14.894 11.8845,15.409 L1.9325,20.144 C0.6435,20.723 0.0005,21.368 0.0005,22.076 L0.0005,22.366 C0.0005,22.946 0.3535,23.493 1.0635,24.008 L1.0635,24.008 Z" id="Fill-1"></path>
            <path d="M70.1466,48.4533 C71.9496,45.555 74.3646,44.105 77.3926,44.105 C79.9686,44.105 82.1426,45.346 83.9156,47.825 C85.6856,50.3063 86.5716,52.7043 86.5716,55.0233 C86.5716,56.9563 85.7346,58.3083 84.0596,59.0813 L68.0206,66.0383 C67.6346,64.1063 67.4406,62.0443 67.4406,59.8543 C67.4406,55.1533 68.3426,51.3513 70.1466,48.4533 M56.2336,64.2033 C56.2336,71.5453 58.4076,77.4723 62.7546,81.9813 C67.1026,86.4903 72.5616,88.7443 79.1316,88.7443 C84.7366,88.7443 89.2776,87.2313 92.7556,84.2033 C96.2346,81.1763 98.2296,77.9553 98.7466,74.5413 C98.8096,73.5743 98.4396,72.9953 97.6346,72.8023 C96.8296,72.6083 96.1686,72.8673 95.6546,73.5743 C94.6236,75.6363 93.0296,77.3283 90.8716,78.6473 C88.7126,79.9683 86.1856,80.6273 83.2876,80.6273 C79.9366,80.6273 77.0386,79.6953 74.5906,77.8263 C72.1416,75.9583 70.3066,73.3493 69.0846,69.9993 L92.4656,61.4003 C95.7506,60.2413 97.3936,57.9873 97.3936,54.6373 C97.3936,50.9023 95.8316,47.6 92.7076,44.733 C89.5826,41.868 85.1226,40.433 79.3256,40.433 C72.8836,40.433 67.4246,42.689 62.9486,47.197 C58.4706,51.7063 56.2336,57.3753 56.2336,64.2033" id="Fill-2"></path>
            <path d="M135.413,74.5412 C134.993,74.2842 134.526,74.2192 134.012,74.3482 C133.495,74.4772 133.109,74.7992 132.852,75.3142 C132.142,78.6642 129.857,80.3382 125.992,80.3382 C124.382,80.3382 123.06,79.7102 122.031,78.4542 C121,77.1982 120.485,75.4442 120.485,73.1882 L120.485,46.134 L132.659,46.134 C133.818,46.134 134.398,45.588 134.398,44.492 L134.398,43.139 C134.398,42.624 134.237,42.206 133.915,41.883 C133.592,41.562 133.174,41.4 132.659,41.4 L120.485,41.4 L120.389,32.028 C120.389,30.611 119.775,29.902 118.553,29.902 L117.103,29.902 C116.007,29.902 115.364,30.611 115.171,32.028 C114.784,34.926 113.833,37.214 112.32,38.888 C110.807,40.563 108.825,41.4 106.378,41.4 L103.383,41.4 C102.287,41.4 101.74,41.979 101.74,43.139 L101.74,44.492 C101.74,45.588 102.287,46.134 103.383,46.134 L108.891,46.134 L108.891,73.0912 C108.891,78.1802 110.099,82.0622 112.514,84.7342 C114.93,87.4082 118.229,88.7442 122.417,88.7442 C126.539,88.7442 129.841,87.4572 132.321,84.8792 C134.8,82.3042 136.041,79.2752 136.041,75.7972 C136.041,75.2172 135.831,74.7992 135.413,74.5412" id="Fill-3"></path>
            <path d="M139.325,46.134 L144.833,46.134 L144.833,73.0914 C144.833,78.1804 146.041,82.0624 148.456,84.7344 C150.872,87.4074 154.172,88.7434 158.359,88.7434 C162.481,88.7434 165.783,87.4564 168.263,84.8794 C170.742,82.3044 171.983,79.2754 171.983,75.7974 C171.983,75.2174 171.773,74.7994 171.355,74.5414 C170.935,74.2844 170.469,74.2194 169.954,74.3474 C169.437,74.4774 169.052,74.7994 168.795,75.3144 C168.085,78.6634 165.8,80.3384 161.934,80.3384 C160.324,80.3384 159.003,79.7104 157.973,78.4534 C156.942,77.1974 156.428,75.4444 156.428,73.1884 L156.428,46.134 L168.601,46.134 C169.761,46.134 170.341,45.588 170.341,44.491 L170.341,43.138 C170.341,42.624 170.179,42.206 169.857,41.883 C169.534,41.561 169.116,41.4 168.601,41.4 L156.428,41.4 L156.331,32.028 C156.331,30.611 155.718,29.902 154.495,29.902 L153.046,29.902 C151.949,29.902 151.306,30.611 151.113,32.028 C150.726,34.926 149.775,37.214 148.263,38.887 C146.749,40.563 144.767,41.4 142.32,41.4 L139.325,41.4 C138.229,41.4 137.682,41.979 137.682,43.138 L137.682,44.491 C137.682,45.588 138.229,46.134 139.325,46.134" id="Fill-4"></path>
            <path d="M189.278,48.4533 C191.08,45.555 193.496,44.105 196.524,44.105 C199.099,44.105 201.274,45.346 203.047,47.825 C204.817,50.3063 205.703,52.7043 205.703,55.0233 C205.703,56.9563 204.865,58.3083 203.191,59.0813 L187.152,66.0383 C186.765,64.1063 186.572,62.0443 186.572,59.8543 C186.572,55.1533 187.473,51.3513 189.278,48.4533 M198.263,88.7443 C203.868,88.7443 208.409,87.2313 211.887,84.2033 C215.365,81.1763 217.361,77.9553 217.878,74.5413 C217.941,73.5743 217.571,72.9953 216.766,72.8023 C215.96,72.6083 215.3,72.8673 214.786,73.5743 C213.755,75.6363 212.16,77.3283 210.003,78.6473 C207.843,79.9683 205.317,80.6273 202.418,80.6273 C199.068,80.6273 196.17,79.6953 193.722,77.8263 C191.273,75.9583 189.438,73.3493 188.215,69.9993 L211.597,61.4003 C214.882,60.2413 216.525,57.9873 216.525,54.6373 C216.525,50.9023 214.962,47.6 211.839,44.733 C208.714,41.868 204.254,40.433 198.457,40.433 C192.014,40.433 186.555,42.689 182.08,47.197 C177.601,51.7063 175.364,57.3753 175.364,64.2033 C175.364,71.5453 177.539,77.4723 181.886,81.9813 C186.234,86.4903 191.693,88.7443 198.263,88.7443" id="Fill-5"></path>
            <path d="M225.365,49.9508 C226.75,51.0138 227.442,52.2858 227.442,53.7678 L227.442,79.7588 C227.442,81.1768 226.83,82.4318 225.607,83.5268 C224.383,84.6228 223.771,85.4588 223.771,86.0388 L223.771,86.4258 C223.771,87.3278 224.447,87.7778 225.801,87.7778 L240.776,87.7778 C242.129,87.7778 242.805,87.3278 242.805,86.4258 L242.805,86.0388 C242.805,85.4588 242.064,84.6228 240.583,83.5268 C239.1,82.4318 238.361,81.1768 238.361,79.7588 L238.361,59.0818 C238.361,55.7328 238.94,52.8978 240.099,50.5788 C241.26,48.2598 242.902,47.101 245.027,47.101 C246.251,47.101 247.217,47.487 247.927,48.2598 C248.635,49.0328 249.086,49.9028 249.279,50.8688 C249.472,51.8348 249.955,52.7048 250.728,53.4768 C251.501,54.2508 252.595,54.6368 254.013,54.6368 C257.362,54.6368 259.038,52.6078 259.038,48.5498 C259.038,46.231 258.248,44.299 256.671,42.753 C255.092,41.207 252.918,40.434 250.148,40.434 C243.771,40.434 239.487,43.622 237.298,49.9988 L237.298,42.463 C237.298,40.467 236.363,39.919 234.496,40.821 L225.027,45.168 C223.868,45.813 223.288,46.49 223.288,47.198 L223.288,47.487 C223.288,48.0668 223.979,48.8888 225.365,49.9508" id="Fill-6"></path>
            <path d="M79.132,138.8327 L77.973,120.9587 C77.457,113.4867 75.572,108.0607 72.32,104.6777 C69.068,101.2967 64.929,99.6047 59.905,99.6047 C56.49,99.6047 53.432,100.4427 50.726,102.1177 C48.021,103.7937 46.055,106.1437 44.832,109.1707 C43.222,106.1437 40.983,103.7937 38.117,102.1177 C35.25,100.4427 32.045,99.6047 28.503,99.6047 C25.539,99.6047 22.851,100.3147 20.436,101.7307 C18.02,103.1477 16.103,105.0497 14.687,107.4317 L14.687,101.7307 C14.687,100.8297 14.428,100.2017 13.913,99.8467 C13.398,99.4937 12.624,99.5417 11.595,99.9917 L1.739,104.5327 C0.58,105.0497 0,105.6287 0,106.2717 L0,106.5617 C0,107.1427 0.354,107.6887 1.064,108.2047 C1.771,108.7207 2.479,109.3637 3.189,110.1377 C3.897,110.9097 4.251,111.8767 4.251,113.0357 L4.251,138.9297 C4.251,140.3477 3.607,141.6197 2.319,142.7457 C1.029,143.8737 0.387,144.7277 0.387,145.3077 L0.387,145.6927 C0.387,146.5967 1.095,147.0467 2.513,147.0467 L17.488,147.0467 C18.841,147.0467 19.518,146.5967 19.518,145.6927 L19.518,145.3077 C19.518,144.7277 18.873,143.8737 17.585,142.7457 C16.296,141.6197 15.653,140.3477 15.653,138.9297 L15.556,115.7407 C15.685,112.3927 16.683,109.6387 18.552,107.4797 C20.419,105.3227 22.803,104.2427 25.701,104.2427 C28.663,104.2427 31.096,105.5967 32.996,108.3017 C34.896,111.0067 35.847,114.7747 35.847,119.6057 L35.847,138.9297 C35.847,140.3477 35.281,141.6197 34.155,142.7457 C33.028,143.8737 32.465,144.7277 32.465,145.3077 L32.465,145.6927 C32.465,146.5967 33.173,147.0467 34.59,147.0467 L48.601,147.0467 C49.953,147.0467 50.629,146.5967 50.629,145.6927 L50.629,145.3077 C50.629,144.7277 50.065,143.8737 48.939,142.7457 C47.811,141.6197 47.248,140.3477 47.248,138.9297 L47.248,120.2817 C47.248,118.4787 47.117,116.9337 46.861,115.6447 C46.989,112.3587 47.973,109.6387 49.808,107.4797 C51.644,105.3227 53.881,104.2427 56.524,104.2427 C59.679,104.2427 62.111,105.5317 63.819,108.1077 C65.524,110.6857 66.507,114.8717 66.765,120.6687 L67.732,138.9297 C67.795,140.3477 67.248,141.6197 66.089,142.7457 C64.929,143.8737 64.35,144.7277 64.35,145.3077 L64.35,145.6927 C64.35,146.5967 65.026,147.0467 66.379,147.0467 L80.581,147.0467 C81.935,147.0467 82.611,146.5967 82.611,145.6927 L82.611,145.3077 C82.611,144.7277 82.046,143.8577 80.92,142.6977 C79.792,141.5387 79.195,140.2507 79.132,138.8327" id="Fill-7"></path>
            <path d="M115.413,141.3454 C113.77,143.2784 111.628,144.2434 108.987,144.2434 C106.089,144.2434 103.722,143.0524 101.887,140.6684 C100.051,138.2864 99.1332,135.3884 99.1332,131.9734 C99.1332,129.0744 99.9692,126.7724 101.644,125.0654 C103.319,123.3594 105.51,122.5044 108.215,122.5044 C110.791,122.5044 112.916,123.3104 114.592,124.9194 C116.267,126.5314 117.201,128.7214 117.393,131.4904 L117.684,134.4854 C117.812,137.1274 117.056,139.4124 115.413,141.3454 M134.06,143.8584 C133.578,143.5354 133.03,143.2784 132.418,143.0844 C131.806,142.8914 131.194,142.3934 130.583,141.5874 C129.97,140.7824 129.6,139.6714 129.472,138.2534 L127.539,119.7014 C126.829,113.4544 124.607,108.5424 120.872,104.9684 C117.136,101.3924 112.24,99.6054 106.185,99.6054 C101.031,99.6054 96.7662,100.6364 93.3842,102.6974 C90.0022,104.7594 88.3102,107.3344 88.3102,110.4264 C88.3102,111.7804 88.7462,112.8594 89.6152,113.6634 C90.4852,114.4704 91.6282,114.8714 93.0462,114.8714 C94.3982,114.8714 95.5242,114.2604 96.4272,113.0354 C97.3282,111.8124 98.0212,110.4754 98.5052,109.0264 C98.9872,107.5754 99.8892,106.2404 101.21,105.0164 C102.529,103.7934 104.188,103.1804 106.185,103.1804 C109.406,103.1804 111.757,104.5324 113.239,107.2394 C114.721,109.9434 115.751,114.2604 116.331,120.1854 L116.524,122.1174 C113.689,119.9294 109.954,118.8324 105.316,118.8324 C100.227,118.8324 96.0082,120.1054 92.6592,122.6494 C89.3092,125.1954 87.6672,128.7534 87.7312,133.3254 C87.7312,137.9634 89.3892,141.5554 92.7072,144.0994 C96.0242,146.6444 100.389,147.9154 105.8,147.9154 C112.177,147.9154 116.652,145.8554 119.229,141.7324 C119.423,143.9874 120.114,145.5174 121.307,146.3214 C122.498,147.1254 124.382,147.5294 126.959,147.5294 C132.177,147.5294 134.786,146.7244 134.786,145.1134 C134.786,144.5984 134.544,144.1804 134.06,143.8584" id="Fill-8"></path>
            <path d="M164.931,99.6051 C158.554,99.6051 154.27,102.7931 152.08,109.1701 L152.08,101.6341 C152.08,99.6381 151.146,99.0901 149.279,99.9921 L139.81,104.3391 C138.65,104.9841 138.071,105.6611 138.071,106.3691 L138.071,106.6591 C138.071,107.2391 138.762,108.0601 140.148,109.1221 C141.533,110.1851 142.225,111.4581 142.225,112.9391 L142.225,138.9291 C142.225,140.3471 141.613,141.6031 140.39,142.6981 C139.165,143.7931 138.554,144.6301 138.554,145.2101 L138.554,145.5961 C138.554,146.5001 139.23,146.9501 140.582,146.9501 L155.559,146.9501 C156.911,146.9501 157.588,146.5001 157.588,145.5961 L157.588,145.2101 C157.588,144.6301 156.846,143.7931 155.366,142.6981 C153.883,141.6031 153.143,140.3471 153.143,138.9291 L153.143,118.2521 C153.143,114.9041 153.723,112.0691 154.882,109.7511 C156.042,107.4311 157.685,106.2721 159.81,106.2721 C161.034,106.2721 161.999,106.6591 162.708,107.4311 C163.416,108.2051 163.869,109.0741 164.062,110.0411 C164.254,111.0061 164.738,111.8761 165.511,112.6491 C166.284,113.4221 167.378,113.8081 168.796,113.8081 C172.145,113.8081 173.82,111.7801 173.82,107.7211 C173.82,105.4021 173.031,103.4701 171.452,101.9241 C169.874,100.3781 167.7,99.6051 164.931,99.6051" id="Fill-9"></path>
            <path d="M237.975,119.026 C237.975,114.325 238.876,110.523 240.681,107.625 C242.483,104.726 244.899,103.277 247.927,103.277 C250.502,103.277 252.677,104.518 254.45,106.997 C256.22,109.477 257.106,111.877 257.106,114.195 C257.106,116.128 256.268,117.48 254.594,118.253 L238.555,125.21 C238.168,123.278 237.975,121.216 237.975,119.026 M268.169,131.973 C267.363,131.78 266.704,132.038 266.189,132.746 C265.158,134.808 263.563,136.5 261.406,137.819 C259.246,139.139 256.72,139.799 253.821,139.799 C250.471,139.799 247.573,138.867 245.125,136.998 C242.676,135.13 240.841,132.521 239.618,129.172 L263,120.572 C266.286,119.413 267.928,117.159 267.928,113.808 C267.928,110.074 266.365,106.772 263.242,103.905 C260.117,101.04 255.657,99.605 249.86,99.605 C243.417,99.605 237.958,101.861 233.483,106.369 C229.004,110.878 226.767,116.547 226.767,123.374 C226.767,130.717 228.942,136.644 233.289,141.152 C237.637,145.662 243.096,147.916 249.666,147.916 C255.271,147.916 259.812,146.403 263.29,143.375 C266.768,140.347 268.764,137.128 269.281,133.713 C269.344,132.746 268.974,132.167 268.169,131.973" id="Fill-10"></path>
            <path d="M305.947,133.7126 C305.527,133.4556 305.06,133.3916 304.546,133.5196 C304.03,133.6496 303.643,133.9706 303.386,134.4846 C302.676,137.8356 300.391,139.5096 296.526,139.5096 C294.916,139.5096 293.594,138.8816 292.565,137.6256 C291.534,136.3696 291.019,134.6146 291.019,132.3596 L291.019,105.3056 L303.193,105.3056 C304.352,105.3056 304.932,104.7596 304.932,103.6636 L304.932,102.3106 C304.932,101.7956 304.771,101.3776 304.449,101.0546 C304.126,100.7336 303.708,100.5716 303.193,100.5716 L291.019,100.5716 L290.923,91.1996 C290.923,89.7826 290.309,89.0736 289.087,89.0736 L287.637,89.0736 C286.541,89.0736 285.898,89.7826 285.705,91.1996 C285.318,94.0986 284.367,96.3856 282.854,98.0596 C281.341,99.7346 279.36,100.5716 276.913,100.5716 L273.917,100.5716 C272.821,100.5716 272.275,101.1506 272.275,102.3106 L272.275,103.6636 C272.275,104.7596 272.821,105.3056 273.917,105.3056 L279.425,105.3056 L279.425,132.2636 C279.425,137.3526 280.633,141.2336 283.048,143.9056 C285.464,146.5796 288.763,147.9156 292.952,147.9156 C297.073,147.9156 300.375,146.6276 302.855,144.0506 C305.334,141.4756 306.575,138.4466 306.575,134.9686 C306.575,134.3886 306.365,133.9706 305.947,133.7126" id="Fill-11"></path>
            <path d="M67.4406,4.144 C67.4406,1.855 65.5866,0 63.2966,0 L50.8656,0 C34.8516,0.018 21.8756,12.995 21.8576,29.008 L21.8576,33.152 L38.4326,33.152 C54.4466,33.134 67.4226,20.157 67.4406,4.144" id="Fill-12"></path>
            <path d="M225.802,142.7946 C224.384,141.8936 223.449,141.1516 223,140.5716 L205.801,117.1906 L215.271,108.4946 C216.107,107.7216 217.202,106.9336 218.556,106.1266 C219.908,105.3226 220.954,104.6296 221.696,104.0496 C222.436,103.4706 222.807,102.8586 222.807,102.2136 L222.807,101.9246 C222.807,101.0236 222.259,100.5716 221.164,100.5716 L208.797,100.5716 C207.637,100.5716 207.058,101.0546 207.058,102.0216 L207.058,102.3106 C207.058,102.6966 207.686,103.6146 208.942,105.0646 C210.198,106.5146 210.31,107.6896 209.28,108.5916 L191.888,123.7606 L191.888,95.5216 C191.888,94.3156 191.075,93.2796 189.918,92.9436 C188.036,92.3986 186.246,91.6556 184.552,90.7196 C182.768,89.7326 180.583,91.0146 180.583,93.0516 L180.583,138.9296 C180.583,140.2826 179.988,141.5066 178.796,142.6016 C177.604,143.6976 177.009,144.5666 177.009,145.2106 L177.009,145.5006 C177.009,146.4666 177.685,146.9496 179.037,146.9496 L193.724,146.9496 C195.14,146.9496 195.85,146.4666 195.85,145.5006 L195.85,145.2106 C195.85,144.6306 195.189,143.7766 193.869,142.6496 C192.548,141.5236 191.888,140.2826 191.888,138.9296 L191.888,130.1376 L198.458,124.0506 L210.825,140.5716 C211.469,141.4096 211.324,142.2636 210.391,143.1336 C209.456,144.0026 208.99,144.7276 208.99,145.3076 L208.99,145.5006 C208.99,146.4666 209.536,146.9496 210.633,146.9496 L226.189,146.9496 C227.348,146.9496 227.928,146.4996 227.928,145.5966 L227.928,145.3076 C227.928,144.5336 227.218,143.6976 225.802,142.7946" id="Fill-13"></path>
        </g>
    </g>
</svg>